<?xml version="1.0" encoding="utf-8"?>
<!-- Generator: Adobe Illustrator 27.6.1, SVG Export Plug-In . SVG Version: 6.00 Build 0)  -->
<svg version="1.1" id="Layer_1" xmlns="http://www.w3.org/2000/svg" xmlns:xlink="http://www.w3.org/1999/xlink" x="0px" y="0px"
	 viewBox="0 0 391.2 391.2" style="enable-background:new 0 0 391.2 391.2;" xml:space="preserve">
<style type="text/css">
	.st0{fill:#010101;}
	.st1{fill:#C8102E;}
	.st2{fill:#FFFFFF;}
</style>
<path class="st0" d="M292.5,14.2H29.4v98.2H73V276H29.4v98.2h263.1l75-75V89.2L292.5,14.2z M269.4,263.8L257.1,276h-85.9V112.3h85.9
	l12.2,12.2V263.8L269.4,263.8z"/>
<polygon class="st1" points="318.5,63.2 274.8,106.9 285.7,117.8 285.7,270.6 263.9,292.3 154.8,292.3 154.8,248.7 45.7,357.8 
	285.7,357.8 351.2,292.3 351.2,96 "/>
<polygon class="st2" points="285.7,30.5 45.7,30.5 45.7,96 105.7,96 89.3,112.3 89.3,276 105.7,292.3 45.7,292.3 45.7,357.8 
	154.8,248.7 154.8,96 263.9,96 274.8,106.9 318.5,63.2 "/>
</svg>
